# xmcd
#
# Track frame offsets:
#	150
#	11625
#	27723
#	53545
#	70842
#	93318
#	112509
#	133663
#	149584
#	164244
#	187199
#	204725
#
# Disc length: 2914 seconds
#
# Revision: 1
# Processed by: cddbd v1.5.2PL0 Copyright (c) Steve Scherf et al.
# Submitted via: audiograbber 1.83.01
#
DISCID=b10b600c
DTITLE=Mam's Brand New Bag - One Foot In The Blues
DYEAR=2001
DGENRE=Blues
TTITLE0=Meat Cuttin Blues
TTITLE1=Let's Get Drunk and Truck
TTITLE2=St. James Infirmary
TTITLE3=Cold Pizza and Warm Beer
TTITLE4=Nobody's Fool
TTITLE5=The Blues My Naughty Sweetie Gives To Me
TTITLE6=Autumn Leaves
TTITLE7=Love Blues
TTITLE8=Good Stuff
TTITLE9=One Foot In The Blues
TTITLE10=Good Life/Wild Women Don't Get The Blues
TTITLE11=Mam's Got  A Brand New Bag
EXTD=
EXTT0=
EXTT1=
EXTT2=
EXTT3=
EXTT4=
EXTT5=
EXTT6=
EXTT7=
EXTT8=
EXTT9=
EXTT10=
EXTT11=
PLAYORDER=
